<svg xmlns="http://www.w3.org/2000/svg" xml:space="preserve" width="500" height="500" viewBox="0 0 1500 1500" data-version="1" data-id="lg_Jf98LNBQxyYwN7AlOn" x="0" y="0"><rect width="1500" height="1500" id="background" stroke="transparent" fill="#ffffff"></rect><g id="outer-wrapper" data-padding="20" transform="matrix(1.7857142857142858,0,0,1.7857142857142858,-589.2857142857144,-589.2857142857144)"><g id="inner-wrapper" transform="matrix(0.9642857142857143,0,0,0.9642857142857143,10,3.089285714285708)"><rect width="560" height="172.89" x="86.90740740740739" y="287.9890740740738" fill="none" rx="0" ry="0" transform="translate(400.5 400.14)"></rect><path fill="#0063db" d="M604.2374074074074 746.1440740740738V822.6440740740738H582.8674074074074V746.1440740740738Q582.8674074074074 743.8940740740738 582.0074074074074 741.9540740740739T579.6974074074074 738.5540740740739Q578.2374074074073 737.1040740740739 576.2974074074074 736.274074074074Q574.3574074074074 735.454074074074 572.1074074074074 735.454074074074Q569.8674074074074 735.454074074074 567.9274074074074 736.274074074074Q565.9874074074073 737.1040740740739 564.5274074074074 738.5540740740739Q563.0674074074074 740.014074074074 562.2474074074073 741.9540740740739T561.4274074074074 746.1440740740738V822.6440740740738H539.9874074074073V746.1440740740738Q539.9874074074073 743.8940740740738 539.1674074074074 741.9540740740739T536.8874074074074 738.5540740740739Q535.4274074074074 737.1040740740739 533.4874074074073 736.274074074074Q531.5474074074074 735.454074074074 529.3074074074074 735.454074074074T525.1174074074074 736.274074074074Q523.1774074074074 737.1040740740739 521.7174074074073 738.5540740740739Q520.2674074074074 740.014074074074 519.4474074074074 741.9540740740739Q518.6174074074073 743.8940740740738 518.6174074074073 746.1440740740738V822.6440740740738H497.1774074074074V746.1440740740738Q497.1774074074074 739.494074074074 499.68740740740736 733.6240740740739Q502.18740740740736 727.764074074074 506.55740740740737 723.3940740740738T516.7874074074073 716.514074074074Q522.6574074074074 714.014074074074 529.3074074074074 714.014074074074Q535.2774074074073 714.014074074074 540.8074074074074 716.1440740740738T550.7474074074073 722.3040740740739Q555.1574074074074 718.274074074074 560.6474074074074 716.1440740740738T572.1074074074073 714.014074074074Q578.7574074074073 714.014074074074 584.6274074074074 716.514074074074Q590.4874074074073 719.024074074074 594.8574074074073 723.3940740740738T601.7374074074073 733.6240740740739Q604.2374074074073 739.494074074074 604.2374074074073 746.1440740740738M698.5174074074073 781.9240740740739Q698.5174074074073 790.8840740740739 695.3074074074074 798.6240740740739Q692.0874074074073 806.3540740740739 686.5674074074074 811.994074074074Q681.0374074074074 817.6340740740739 673.5974074074073 820.8840740740739Q666.1674074074074 824.1340740740739 657.6474074074074 824.1340740740739Q649.2074074074073 824.1340740740739 641.7774074074073 820.8840740740739Q634.3374074074073 817.6340740740739 628.7774074074073 811.994074074074Q623.2074074074073 806.3540740740739 619.9974074074073 798.6240740740739Q616.7874074074073 790.8840740740739 616.7874074074073 781.9240740740739Q616.7874074074073 772.8140740740739 619.9974074074073 765.0440740740739T628.7774074074073 751.6340740740739Q634.3374074074073 745.994074074074 641.7774074074073 742.774074074074Q649.2074074074073 739.5640740740739 657.6474074074074 739.5640740740739Q666.1674074074074 739.5640740740739 673.5974074074073 742.5940740740739Q681.0374074074073 745.6140740740739 686.5674074074074 751.1840740740738Q692.0874074074073 756.7440740740739 695.3074074074074 764.5540740740739Q698.5174074074073 772.3640740740739 698.5174074074073 781.9240740740738M677.9674074074073 781.9240740740738Q677.9674074074073 776.9940740740739 676.3674074074073 772.9940740740739Q674.7574074074073 769.0040740740739 671.9974074074073 766.1240740740739Q669.2274074074073 763.2440740740739 665.5374074074073 761.7140740740738Q661.8374074074073 760.1840740740738 657.6474074074074 760.1840740740738Q653.4674074074073 760.1840740740738 649.7674074074073 761.7140740740738T643.3474074074073 766.1240740740739Q640.6174074074073 769.0040740740739 639.0474074074073 772.9940740740739Q637.4774074074073 776.9940740740739 637.4774074074073 781.9240740740738Q637.4774074074073 786.5540740740739 639.0474074074073 790.5140740740738T643.3474074074073 797.3840740740739Q646.0674074074074 800.3040740740739 649.7674074074073 801.9840740740739T657.6474074074074 803.6640740740738Q661.8374074074073 803.6640740740738 665.5374074074073 802.0940740740739Q669.2274074074073 800.524074074074 671.9974074074073 797.6840740740738Q674.7574074074073 794.8440740740739 676.3674074074073 790.8140740740739Q677.9674074074073 786.7840740740739 677.9674074074073 781.9240740740738M779.7274074074073 758.5440740740739L764.7874074074073 773.5540740740739Q763.6674074074074 770.4140740740738 761.7274074074073 767.9140740740738T757.3574074074073 763.6940740740738T752.0874074074073 761.0840740740739Q749.2474074074073 760.1840740740738 746.2674074074073 760.1840740740738Q742.0774074074073 760.1840740740738 738.3774074074074 761.9040740740738Q734.6874074074074 763.6240740740739 731.9574074074073 766.7240740740739T727.6574074074074 774.0840740740739Q726.0974074074073 778.3340740740739 726.0974074074073 783.494074074074Q726.0974074074073 787.6740740740739 727.6574074074074 791.3340740740739Q729.2274074074073 794.994074074074 731.9574074074073 797.764074074074Q734.6874074074074 800.524074074074 738.3774074074074 802.0940740740739Q742.0774074074073 803.6640740740738 746.2674074074073 803.6640740740738Q749.2474074074073 803.6640740740738 752.0174074074073 802.8440740740739Q754.7774074074073 802.024074074074 757.2074074074073 800.4840740740739Q759.6374074074074 798.9540740740739 761.5374074074073 796.7540740740739Q763.4474074074074 794.5540740740739 764.6374074074074 791.8640740740739L779.5874074074073 806.8740740740739Q776.7474074074073 810.9140740740738 773.0474074074073 814.1240740740739T765.0474074074073 819.5740740740739Q760.7574074074073 821.8140740740739 756.0174074074073 822.9740740740738Q751.2674074074073 824.1340740740739 746.2674074074073 824.1340740740739Q737.8174074074074 824.1340740740739 730.3874074074074 820.9540740740738Q722.9574074074073 817.7840740740738 717.3874074074074 812.2540740740739Q711.8274074074073 806.7240740740739 708.6074074074074 799.3340740740739Q705.3974074074074 791.9340740740738 705.3974074074074 783.4940740740739Q705.3974074074074 774.3040740740739 708.6074074074074 766.3140740740739Q711.8274074074075 758.3140740740739 717.3874074074074 752.3740740740739Q722.9574074074073 746.4340740740738 730.3874074074074 743.0040740740739Q737.8174074074074 739.5640740740739 746.2674074074073 739.5640740740739Q751.2674074074073 739.5640740740739 756.0874074074073 740.8340740740739T765.2774074074073 744.5340740740738T773.3474074074073 750.4740740740738T779.7274074074073 758.5440740740738M810.2074074074073 812.4040740740738V822.6440740740738H789.6574074074074V710.8040740740739H810.2074074074073V781.3240740740739L840.6074074074073 742.774074074074H864.0674074074072L837.5474074074073 776.0940740740739L864.0674074074072 822.6440740740738H840.6074074074074L824.3974074074074 793.5740740740739ZM896.1774074074074 720.8840740740739Q896.1774074074074 723.7240740740738 895.0974074074073 726.1940740740738Q894.0174074074073 728.6540740740738 892.1474074074073 730.4840740740739T887.7774074074073 733.4040740740738Q885.2774074074073 734.4840740740739 882.4374074074072 734.4840740740739T877.0974074074072 733.4040740740738Q874.5874074074072 732.3140740740739 872.7574074074073 730.4840740740739T869.8474074074072 726.1940740740738Q868.7674074074073 723.7240740740738 868.7674074074073 720.8840740740739Q868.7674074074073 718.1240740740739 869.8474074074072 715.6240740740739Q870.9274074074073 713.1140740740739 872.7574074074073 711.2840740740739T877.0974074074072 708.3740740740739Q879.5974074074072 707.2940740740739 882.4374074074072 707.2940740740739T887.7774074074073 708.3740740740739T892.1474074074073 711.2840740740739T895.0974074074073 715.6240740740739Q896.1774074074074 718.1240740740739 896.1774074074074 720.8840740740739M892.6674074074074 742.6240740740739V822.6440740740738H872.1274074074074V742.6240740740739ZM934.1374074074074 762.9440740740738V822.6440740740738H913.7474074074074V762.9440740740738H903.8074074074074V742.6240740740739H913.7474074074074V738.8140740740739Q913.7474074074074 731.4240740740738 916.5474074074074 724.9240740740738T924.2474074074074 713.6040740740739Q929.1374074074074 708.7840740740739 935.6374074074074 705.9840740740739T949.5274074074074 703.1840740740738H964.8474074074074V723.5040740740739H949.5274074074074Q946.2474074074074 723.5040740740739 943.4474074074074 724.6640740740738Q940.6374074074074 725.8140740740739 938.5874074074073 727.8740740740739Q936.5274074074074 729.9240740740738 935.3374074074073 732.7340740740739Q934.1374074074073 735.5340740740739 934.1374074074073 738.8140740740739V742.6240740740739H959.1674074074073V762.9440740740738ZM998.5474074074074 853.2640740740738L988.0874074074073 853.1240740740739V832.5740740740739L999.4474074074074 832.7240740740738Q1002.4374074074074 832.7240740740738 1005.1974074074074 831.7540740740737T1010.3174074074074 829.0640740740738Q1012.6674074074074 827.3440740740738 1014.4574074074073 824.9940740740738Q1016.2574074074073 822.6440740740738 1017.3774074074073 819.8740740740739Q1014.0174074074073 821.2940740740738 1010.5374074074073 822.7140740740738Q1007.0674074074072 824.1340740740739 1003.5574074074073 824.1340740740739Q996.1574074074073 824.1340740740739 989.6574074074073 821.5140740740737Q983.1574074074073 818.9040740740738 978.2674074074073 814.0840740740738T970.5674074074072 802.3540740740738Q967.7674074074073 795.4440740740738 967.7674074074073 786.8540740740738V742.6240740740737H988.0874074074073V786.8540740740738Q988.0874074074073 791.1140740740738 989.3274074074073 794.2840740740737Q990.5574074074074 797.4640740740738 992.6474074074074 799.5940740740738T997.5374074074074 802.7640740740737Q1000.3374074074073 803.8140740740738 1003.5574074074074 803.8140740740738Q1006.6874074074074 803.8140740740738 1009.4974074074074 802.3540740740739Q1012.2974074074074 800.9040740740738 1014.3874074074074 798.5040740740737Q1016.4774074074074 796.1140740740739 1017.6774074074074 793.0940740740738Q1018.8674074074074 790.0640740740738 1018.8674074074074 786.8540740740738V742.6240740740737H1039.4174074074074V812.5540740740737Q1039.3374074074072 820.9940740740738 1036.1274074074074 828.3940740740737Q1032.9174074074074 835.7840740740737 1027.3474074074074 841.3140740740737Q1021.7874074074075 846.8440740740737 1014.3874074074074 850.0540740740737T998.5474074074074 853.2640740740737 "></path></g><rect width="560" height="173" x="470" y="663.5" id="space-saver" fill="transparent" stroke="transparent"></rect></g></svg>