<svg xmlns="http://www.w3.org/2000/svg" xml:space="preserve" width="1500" height="173" viewBox="0 0 1500 173" data-version="1" data-id="lg_Jf98LNBQxyYwN7AlOn"><g id="outer-wrapper" data-padding="20" transform="matrix(1,0,0,1,0,0)"><g id="inner-wrapper" transform="matrix(0.9642857142857143,0,0,0.9642857142857143,10,3.089285714285708)"><rect width="560" height="172.89" x="86.90740740740739" y="-400.085" fill="none" rx="0" ry="0" transform="translate(400.5 400.14)"></rect><path fill="#0063db" d="M604.2374074074074 58.06999999999999V134.57H582.8674074074074V58.06999999999999Q582.8674074074074 55.81999999999999 582.0074074074074 53.879999999999995T579.6974074074074 50.48000000000002Q578.2374074074073 49.03000000000003 576.2974074074074 48.200000000000045Q574.3574074074074 47.38000000000005 572.1074074074074 47.38000000000005Q569.8674074074074 47.38000000000005 567.9274074074074 48.200000000000045Q565.9874074074073 49.03000000000003 564.5274074074074 50.48000000000002Q563.0674074074074 51.94 562.2474074074073 53.879999999999995T561.4274074074074 58.06999999999999V134.57H539.9874074074073V58.06999999999999Q539.9874074074073 55.81999999999999 539.1674074074074 53.879999999999995T536.8874074074074 50.48000000000002Q535.4274074074074 49.03000000000003 533.4874074074073 48.200000000000045Q531.5474074074074 47.38000000000005 529.3074074074074 47.38000000000005T525.1174074074074 48.200000000000045Q523.1774074074074 49.03000000000003 521.7174074074073 50.48000000000002Q520.2674074074074 51.94 519.4474074074074 53.879999999999995Q518.6174074074073 55.81999999999999 518.6174074074073 58.06999999999999V134.57H497.1774074074074V58.06999999999999Q497.1774074074074 51.420000000000016 499.68740740740736 45.55000000000001Q502.18740740740736 39.69 506.55740740740737 35.31999999999999T516.7874074074073 28.439999999999998Q522.6574074074074 25.939999999999998 529.3074074074074 25.939999999999998Q535.2774074074073 25.939999999999998 540.8074074074074 28.069999999999993T550.7474074074073 34.23000000000002Q555.1574074074074 30.200000000000045 560.6474074074074 28.069999999999993T572.1074074074073 25.939999999999998Q578.7574074074073 25.939999999999998 584.6274074074074 28.439999999999998Q590.4874074074073 30.94999999999999 594.8574074074073 35.31999999999999T601.7374074074073 45.55000000000001Q604.2374074074073 51.420000000000016 604.2374074074073 58.06999999999999M698.5174074074073 93.85000000000002Q698.5174074074073 102.81 695.3074074074074 110.55000000000001Q692.0874074074073 118.28000000000003 686.5674074074074 123.92000000000002Q681.0374074074074 129.56 673.5974074074073 132.81Q666.1674074074074 136.06 657.6474074074074 136.06Q649.2074074074073 136.06 641.7774074074073 132.81Q634.3374074074073 129.56 628.7774074074073 123.92000000000002Q623.2074074074073 118.28000000000003 619.9974074074073 110.55000000000001Q616.7874074074073 102.81 616.7874074074073 93.85000000000002Q616.7874074074073 84.74000000000001 619.9974074074073 76.97000000000003T628.7774074074073 63.56Q634.3374074074073 57.920000000000016 641.7774074074073 54.69999999999999Q649.2074074074073 51.49000000000001 657.6474074074074 51.49000000000001Q666.1674074074074 51.49000000000001 673.5974074074073 54.51999999999998Q681.0374074074073 57.539999999999964 686.5674074074074 63.10999999999996Q692.0874074074073 68.66999999999996 695.3074074074074 76.47999999999996Q698.5174074074073 84.28999999999996 698.5174074074073 93.84999999999997M677.9674074074073 93.84999999999997Q677.9674074074073 88.91999999999996 676.3674074074073 84.91999999999996Q674.7574074074073 80.92999999999995 671.9974074074073 78.04999999999995Q669.2274074074073 75.16999999999996 665.5374074074073 73.63999999999993Q661.8374074074073 72.10999999999996 657.6474074074074 72.10999999999996Q653.4674074074073 72.10999999999996 649.7674074074073 73.63999999999993T643.3474074074073 78.04999999999995Q640.6174074074073 80.92999999999995 639.0474074074073 84.91999999999996Q637.4774074074073 88.91999999999996 637.4774074074073 93.84999999999997Q637.4774074074073 98.47999999999996 639.0474074074073 102.43999999999994T643.3474074074073 109.30999999999995Q646.0674074074074 112.22999999999996 649.7674074074073 113.90999999999997T657.6474074074074 115.58999999999997Q661.8374074074073 115.58999999999997 665.5374074074073 114.01999999999998Q669.2274074074073 112.44999999999999 671.9974074074073 109.60999999999996Q674.7574074074073 106.76999999999998 676.3674074074073 102.73999999999995Q677.9674074074073 98.70999999999998 677.9674074074073 93.84999999999997M779.7274074074073 70.46999999999997L764.7874074074073 85.47999999999996Q763.6674074074074 82.33999999999997 761.7274074074073 79.83999999999997T757.3574074074073 75.61999999999995T752.0874074074073 73.00999999999993Q749.2474074074073 72.10999999999996 746.2674074074073 72.10999999999996Q742.0774074074073 72.10999999999996 738.3774074074074 73.82999999999998Q734.6874074074074 75.55000000000001 731.9574074074073 78.64999999999998T727.6574074074074 86.00999999999999Q726.0974074074073 90.25999999999999 726.0974074074073 95.42000000000002Q726.0974074074073 99.60000000000002 727.6574074074074 103.25999999999999Q729.2274074074073 106.92000000000002 731.9574074074073 109.69Q734.6874074074074 112.44999999999999 738.3774074074074 114.01999999999998Q742.0774074074073 115.58999999999997 746.2674074074073 115.58999999999997Q749.2474074074073 115.58999999999997 752.0174074074073 114.76999999999998Q754.7774074074073 113.94999999999999 757.2074074074073 112.40999999999997Q759.6374074074074 110.88 761.5374074074073 108.67999999999995Q763.4474074074074 106.47999999999996 764.6374074074074 103.78999999999996L779.5874074074073 118.79999999999995Q776.7474074074073 122.83999999999997 773.0474074074073 126.04999999999995T765.0474074074073 131.49999999999994Q760.7574074074073 133.73999999999995 756.0174074074073 134.89999999999992Q751.2674074074073 136.05999999999995 746.2674074074073 136.05999999999995Q737.8174074074074 136.05999999999995 730.3874074074074 132.87999999999994Q722.9574074074073 129.70999999999992 717.3874074074074 124.17999999999995Q711.8274074074073 118.64999999999998 708.6074074074074 111.25999999999993Q705.3974074074074 103.85999999999996 705.3974074074074 95.41999999999996Q705.3974074074074 86.22999999999996 708.6074074074074 78.23999999999995Q711.8274074074075 70.23999999999995 717.3874074074074 64.29999999999995Q722.9574074074073 58.35999999999996 730.3874074074074 54.92999999999995Q737.8174074074074 51.48999999999995 746.2674074074073 51.48999999999995Q751.2674074074073 51.48999999999995 756.0874074074073 52.759999999999934T765.2774074074073 56.45999999999992T773.3474074074073 62.39999999999992T779.7274074074073 70.46999999999991M810.2074074074073 124.32999999999993V134.56999999999994H789.6574074074074V22.730000000000018H810.2074074074073V93.25L840.6074074074073 54.69999999999999H864.0674074074072L837.5474074074073 88.01999999999998L864.0674074074072 134.57H840.6074074074074L824.3974074074074 105.5ZM896.1774074074074 32.809999999999945Q896.1774074074074 35.64999999999992 895.0974074074073 38.11999999999995Q894.0174074074073 40.57999999999993 892.1474074074073 42.40999999999997T887.7774074074073 45.329999999999984Q885.2774074074073 46.40999999999997 882.4374074074072 46.40999999999997T877.0974074074072 45.329999999999984Q874.5874074074072 44.24000000000001 872.7574074074073 42.40999999999997T869.8474074074072 38.11999999999995Q868.7674074074073 35.64999999999992 868.7674074074073 32.809999999999945Q868.7674074074073 30.049999999999955 869.8474074074072 27.549999999999955Q870.9274074074073 25.039999999999964 872.7574074074073 23.20999999999998T877.0974074074072 20.299999999999955Q879.5974074074072 19.21999999999997 882.4374074074072 19.21999999999997T887.7774074074073 20.299999999999955T892.1474074074073 23.20999999999998T895.0974074074073 27.549999999999955Q896.1774074074074 30.049999999999955 896.1774074074074 32.809999999999945M892.6674074074074 54.549999999999955V134.56999999999994H872.1274074074074V54.549999999999955ZM934.1374074074074 74.86999999999995V134.56999999999994H913.7474074074074V74.86999999999995H903.8074074074074V54.549999999999955H913.7474074074074V50.73999999999995Q913.7474074074074 43.349999999999966 916.5474074074074 36.849999999999966T924.2474074074074 25.529999999999973Q929.1374074074074 20.70999999999998 935.6374074074074 17.909999999999968T949.5274074074074 15.109999999999957H964.8474074074074V35.42999999999995H949.5274074074074Q946.2474074074074 35.42999999999995 943.4474074074074 36.589999999999975Q940.6374074074074 37.73999999999995 938.5874074074073 39.799999999999955Q936.5274074074074 41.849999999999966 935.3374074074073 44.65999999999997Q934.1374074074073 47.45999999999998 934.1374074074073 50.73999999999995V54.549999999999955H959.1674074074073V74.86999999999995ZM998.5474074074074 165.18999999999994L988.0874074074073 165.04999999999995V144.49999999999994L999.4474074074074 144.64999999999992Q1002.4374074074074 144.64999999999992 1005.1974074074074 143.6799999999999T1010.3174074074074 140.9899999999999Q1012.6674074074074 139.26999999999987 1014.4574074074073 136.9199999999999Q1016.2574074074073 134.56999999999988 1017.3774074074073 131.7999999999999Q1014.0174074074073 133.2199999999999 1010.5374074074073 134.63999999999987Q1007.0674074074072 136.0599999999999 1003.5574074074073 136.0599999999999Q996.1574074074073 136.0599999999999 989.6574074074073 133.43999999999988Q983.1574074074073 130.82999999999987 978.2674074074073 126.00999999999988T970.5674074074072 114.27999999999986Q967.7674074074073 107.36999999999983 967.7674074074073 98.77999999999986V54.54999999999984H988.0874074074073V98.77999999999986Q988.0874074074073 103.03999999999985 989.3274074074073 106.20999999999987Q990.5574074074074 109.38999999999987 992.6474074074074 111.51999999999987T997.5374074074074 114.68999999999988Q1000.3374074074073 115.7399999999999 1003.5574074074074 115.7399999999999Q1006.6874074074074 115.7399999999999 1009.4974074074074 114.27999999999992Q1012.2974074074074 112.82999999999993 1014.3874074074074 110.4299999999999Q1016.4774074074074 108.0399999999999 1017.6774074074074 105.01999999999987Q1018.8674074074074 101.9899999999999 1018.8674074074074 98.77999999999986V54.54999999999984H1039.4174074074074V124.47999999999985Q1039.3374074074072 132.91999999999985 1036.1274074074074 140.31999999999982Q1032.9174074074074 147.7099999999998 1027.3474074074074 153.23999999999984Q1021.7874074074075 158.7699999999998 1014.3874074074074 161.97999999999985T998.5474074074074 165.18999999999983 "></path></g><rect width="560" height="173" x="470" y="0" id="space-saver" fill="transparent" stroke="transparent"></rect></g></svg>